<svg xmlns="http://www.w3.org/2000/svg" viewBox="0 0 300 400" fill="none">
<g stroke="#ffffff" stroke-width="2.6" stroke-linecap="round" stroke-linejoin="round"><ellipse cx="96" cy="220" rx="10.0" ry="11.5"/><path d="M96 232 L96 260"/><path d="M82 228 Q96 240 110 228"/><path d="M96 260 L86 282"/><path d="M96 260 L106 282"/><path d="M212 300 L212 200 L246 200 L246 300 Z"/><path d="M229 200 L229 128"/><path d="M198 116 q31 -26 62 0" stroke-dasharray="6 10"/><path d="M186 96 q43 -36 86 0" stroke-dasharray="6 10"/><path d="M132 176 q22 -22 44 -4 q8 14 -8 20 l-12 8 2 -10 q-28 -2 -26 -14 Z"/></g>
<g stroke="var(--accent, #7fb0d4)" stroke-width="5" stroke-linecap="round" stroke-linejoin="round" opacity="0.95"></g>
</svg>